# xmcd
#
# Track frame offsets:
#      150
#      30375
#      49650
#      74925
#      103050
#      134925
#      162475
#      185025
# 
# Disc length: 2789 seconds
#
# Revision: 2
# Processed by: cddbd v1.4PL0 Copyright (c) Steve Scherf et al.
#
# Submitted via: FreeRIP 1.20
#
DISCID=7f0ae308
DTITLE=Various Artist - Dance Pool Vol. 2
DYEAR=1900
DGENRE=
TTITLE0=B.G. Prince of Rap -  Rap to the World (World Clubmix)
TTITLE1=R.S.P. - All right now (Hip Hop Remix)
TTITLE2=Hi-Definition feat. Anthony Woods - Make the Babies Smile (Extended Chorus Mix)
TTITLE3=P.M. Simpson and Double Key - We love to love (Mosaic Clubmix)
TTITLE4=Spliff - Déjá Vu (Mosaic-Mix '90)
TTITLE5=Azucar Moreno - A Caballo (Dance Mix - Version Maxi)
TTITLE6=Plutonic - Tubular Bells (Extended Version)
TTITLE7=Western Block Introducing Terri Symon - Right here right now
EXTD=
EXTT0=
EXTT1=
EXTT2=
EXTT3=
EXTT4=
EXTT5=
EXTT6=
EXTT7=
PLAYORDER=
